<?xml version="1.0" standalone="no"?>
<!DOCTYPE svg PUBLIC "-//W3C//DTD SVG 20010904//EN"
 "http://www.w3.org/TR/2001/REC-SVG-20010904/DTD/svg10.dtd">
<svg version="1.0" xmlns="http://www.w3.org/2000/svg"
 width="598.000000pt" height="598.000000pt" viewBox="0 0 598.000000 598.000000"
 preserveAspectRatio="xMidYMid meet">
<metadata>
Created by potrace 1.14, written by Peter Selinger 2001-2017
</metadata>
<g transform="translate(0.000000,598.000000) scale(0.100000,-0.100000)"
fill="#000000" stroke="none">
<path d="M3665 5959 c-240 -50 -413 -145 -576 -316 -143 -151 -239 -331 -285
-536 -25 -110 -25 -329 0 -442 21 -96 75 -235 122 -316 29 -49 40 -59 70 -65
20 -4 39 -3 44 2 5 5 -16 63 -46 129 -96 209 -105 247 -109 445 -4 217 11 297
83 450 83 176 242 341 424 443 76 43 204 93 268 106 71 14 189 21 195 12 2 -4
-6 -7 -18 -6 -40 3 -225 -35 -299 -61 -201 -72 -397 -242 -502 -437 -41 -76
-94 -226 -104 -295 -4 -26 -6 -112 -6 -192 1 -176 16 -244 85 -388 58 -121
122 -194 184 -211 47 -13 115 -15 115 -3 0 5 -25 42 -56 82 -77 102 -134 223
-134 285 0 27 31 57 48 46 6 -4 25 -46 41 -94 16 -49 44 -113 63 -143 55 -92
189 -206 214 -181 3 2 -20 30 -51 61 -89 92 -201 344 -167 378 6 6 59 13 119
15 l108 5 80 -88 c44 -49 87 -95 96 -104 65 -67 66 -152 3 -237 -13 -17 -21
-34 -16 -36 4 -3 71 -5 150 -4 l142 1 1 31 c3 94 9 140 21 151 7 7 59 38 115
69 l102 57 44 -25 c57 -34 197 -138 218 -163 25 -30 29 -50 13 -72 -13 -19
-12 -22 7 -32 11 -7 42 -14 69 -17 44 -5 49 -3 83 32 72 74 164 255 187 370
22 106 14 382 -15 500 -41 169 -145 335 -296 470 -94 85 -259 169 -389 199
-67 15 -189 32 -203 28 -5 -1 -6 1 -3 6 6 11 146 5 215 -9 68 -13 216 -80 291
-130 154 -102 265 -232 356 -416 76 -154 94 -241 89 -433 -2 -80 -6 -152 -8
-160 -2 -8 -9 -42 -16 -74 -18 -81 -55 -178 -99 -256 -57 -100 -63 -117 -45
-124 39 -16 85 -6 113 24 62 67 145 279 175 450 9 47 8 199 0 253 -4 23 -9 56
-11 72 -35 220 -142 424 -312 590 -129 125 -266 209 -432 265 -165 56 -398 72
-555 39z m425 -260 c64 -13 189 -68 208 -91 25 -31 -7 -29 -95 5 -48 19 -113
40 -143 46 -61 13 -279 13 -319 0 -41 -13 -101 -18 -106 -9 -9 15 37 49 79 59
52 12 303 6 376 -10z m0 -107 c98 -35 150 -61 156 -77 6 -14 -59 -121 -111
-184 -68 -83 -71 -85 -111 -82 -22 1 -77 3 -123 4 l-83 1 -65 134 c-80 169
-84 185 -46 200 88 36 289 38 383 4z m-688 -61 c-3 -9 -45 -57 -93 -107 -85
-89 -139 -173 -153 -239 -3 -16 -9 -41 -12 -55 -10 -49 -5 -139 10 -174 18
-44 6 -47 -45 -13 l-34 23 1 91 c1 107 19 170 75 264 46 80 172 217 214 235
33 13 48 3 37 -25z m89 -98 c31 -35 109 -139 132 -175 27 -43 20 -69 -29 -118
-41 -42 -104 -147 -104 -175 0 -33 -37 -45 -151 -51 -148 -8 -153 -5 -151 98
3 144 42 248 126 333 48 49 132 115 146 115 4 0 18 -12 31 -27z m1089 -70 c39
-43 93 -155 120 -244 16 -52 19 -90 17 -228 -2 -143 -5 -171 -22 -205 -31 -63
-49 -60 -39 5 33 203 -21 526 -102 614 -55 60 -57 64 -44 80 19 23 35 18 70
-22z m-91 -52 c62 -44 114 -159 127 -282 18 -167 6 -319 -30 -374 -16 -24 -22
-26 -59 -21 -23 3 -81 25 -129 47 -100 48 -105 56 -113 169 -7 103 -14 143
-31 191 -7 23 -14 48 -14 57 0 13 206 232 218 232 2 0 16 -9 31 -19z m-547
-326 c29 -12 61 -91 55 -132 -11 -68 -85 -116 -151 -99 -38 9 -85 54 -95 89
-13 51 26 129 74 147 23 8 92 6 117 -5z"/>
<path d="M2736 5375 c-48 -19 -102 -41 -120 -49 -94 -43 -151 -68 -246 -106
-114 -47 -160 -74 -160 -95 0 -24 24 -22 120 10 310 106 557 229 534 266 -9
15 -36 10 -128 -26z"/>
<path d="M1295 5324 c-183 -32 -395 -128 -515 -233 -83 -72 -188 -186 -229
-247 -72 -107 -139 -280 -166 -429 -8 -45 -8 -232 0 -300 46 -394 321 -744
704 -895 106 -41 171 -44 171 -7 0 36 -19 51 -100 82 -332 125 -556 354 -644
657 -76 264 -39 577 96 801 104 173 250 309 423 393 143 69 220 85 415 86 184
0 245 -10 384 -65 131 -52 190 -93 311 -212 182 -179 237 -278 309 -558 14
-54 29 -103 32 -108 6 -10 80 -7 90 4 5 5 -3 65 -20 153 -52 263 -181 485
-372 642 -130 106 -299 192 -452 229 -90 21 -331 25 -437 7z"/>
<path d="M2572 5186 c-226 -94 -265 -114 -270 -139 -3 -14 2 -17 20 -13 66 13
395 148 451 184 37 25 44 45 16 49 -8 2 -105 -35 -217 -81z"/>
<path d="M1388 5195 c-1 -1 -28 -6 -58 -9 -72 -9 -182 -42 -245 -74 -239 -120
-452 -383 -522 -644 -26 -95 -22 -296 7 -413 62 -250 170 -417 348 -539 62
-42 321 -171 328 -163 18 17 26 308 11 369 l-9 37 -59 -74 c-74 -93 -85 -100
-130 -73 -52 30 -191 179 -217 230 -26 54 -62 188 -62 234 0 29 20 63 38 64 4
1 61 3 127 6 l120 6 65 -77 c36 -43 78 -93 94 -111 15 -19 35 -34 43 -34 9 0
35 18 58 39 45 41 95 61 156 61 79 0 102 11 169 81 44 45 82 74 117 89 65 28
71 35 77 95 7 63 37 94 139 145 93 47 143 59 163 38 8 -7 27 -51 43 -97 16
-46 34 -88 40 -94 17 -17 3 64 -25 146 -27 79 -29 91 -13 81 16 -10 54 -100
69 -164 7 -30 18 -58 24 -62 16 -11 74 -10 95 1 54 29 -39 336 -152 502 -135
201 -368 356 -597 397 -50 9 -233 15 -242 7z m253 -109 c151 -32 326 -130 418
-232 45 -51 68 -99 52 -109 -4 -2 -33 21 -66 52 -70 66 -142 120 -210 157 -27
16 -54 32 -60 36 -21 16 -164 60 -216 66 -58 7 -75 16 -65 33 10 15 67 14 147
-3z m-491 -65 c0 -6 -17 -22 -37 -37 -163 -119 -194 -148 -258 -244 -58 -88
-102 -174 -121 -238 -11 -38 -20 -52 -32 -50 -29 6 -31 52 -6 126 44 133 146
270 269 365 86 66 185 107 185 78z m453 -22 c155 -41 460 -244 441 -294 -7
-17 -141 -111 -237 -165 l-58 -32 -47 17 c-90 34 -162 77 -177 105 -20 40 -54
213 -57 300 -3 72 -2 74 22 80 27 7 54 5 113 -11z m-372 -66 c41 -51 77 -182
81 -290 l3 -70 -58 -62 c-31 -34 -67 -80 -80 -103 l-22 -40 -90 5 c-49 3 -115
11 -145 17 -30 6 -66 13 -80 16 -70 13 -74 26 -39 119 45 121 197 309 311 385
66 44 97 50 119 23z m294 -600 c99 -100 36 -243 -106 -243 -32 0 -98 68 -100
103 -6 109 41 166 137 167 32 0 47 -6 69 -27z m-790 -269 c13 -127 26 -173 72
-251 28 -49 164 -192 218 -230 l30 -21 -27 -7 c-31 -8 -68 14 -148 89 -172
161 -244 347 -176 452 10 14 20 24 22 21 3 -2 7 -26 9 -53z"/>
<path d="M2207 4194 c-1 -1 -72 -4 -157 -7 -166 -6 -198 -12 -264 -51 -55 -32
-65 -45 -80 -103 -17 -66 -34 -73 -187 -73 -186 0 -186 1 -183 -280 2 -184 14
-708 19 -800 2 -36 6 -121 10 -190 5 -99 10 -129 23 -143 17 -17 43 -22 217
-47 96 -14 138 -32 154 -67 6 -14 14 -93 16 -177 5 -149 10 -214 21 -268 l6
-28 461 0 c254 -1 888 -2 1409 -4 843 -3 949 -2 960 12 15 17 16 308 5 867 -4
176 -9 516 -12 755 -6 498 -9 548 -29 568 -18 18 -46 19 -576 28 -362 5 -1808
12 -1813 8z m173 -129 c164 -8 232 -15 251 -25 9 -5 51 -96 94 -202 42 -106
90 -221 105 -254 27 -59 158 -387 270 -674 29 -74 61 -148 72 -163 19 -27 21
-27 40 -10 17 15 176 329 273 538 86 185 275 607 310 690 l37 90 132 4 c260 8
525 6 535 -4 5 -5 12 -27 15 -47 5 -29 3 -38 -9 -38 -8 0 -38 -5 -67 -11 -72
-15 -130 -74 -149 -150 -20 -82 -16 -975 6 -1204 2 -22 6 -74 9 -115 8 -106
13 -137 32 -192 20 -61 60 -92 145 -114 35 -9 67 -21 71 -27 8 -13 3 -75 -6
-85 -9 -9 -83 -11 -487 -15 -197 -3 -362 -1 -369 3 -7 4 -12 20 -12 34 0 20
19 45 80 104 79 76 80 78 93 147 19 98 20 1043 1 1142 l-4 23 -17 -23 c-9 -12
-22 -33 -30 -47 -94 -164 -102 -180 -286 -575 -12 -27 -59 -129 -103 -225 -44
-96 -119 -256 -167 -355 -48 -99 -91 -190 -96 -202 -7 -20 -16 -23 -63 -23
-37 0 -60 5 -74 18 -29 25 -217 503 -362 922 -123 355 -240 641 -274 670 -20
15 -38 -12 -42 -63 -5 -65 -5 -994 1 -1062 16 -220 21 -241 69 -293 23 -26 76
-56 118 -66 31 -7 43 -25 51 -78 l6 -38 -347 0 -347 0 3 45 c4 42 6 45 50 61
90 33 107 61 127 204 11 80 18 349 18 735 1 598 -7 716 -50 781 -8 13 -53 43
-99 66 -82 41 -95 55 -75 86 5 8 24 17 42 21 37 8 297 6 479 -4z m-627 -206
c19 -27 10 -58 -19 -65 -31 -8 -44 2 -44 35 0 49 38 67 63 30z m-223 -4 c0 -8
-11 -17 -25 -20 -80 -16 -79 -16 -64 -26 7 -5 25 -9 39 -9 14 0 31 -4 39 -9
20 -13 6 -41 -21 -41 -13 0 -30 -4 -38 -10 -11 -7 -9 -11 13 -19 16 -6 34 -11
42 -11 8 0 17 -4 20 -10 5 -9 -31 -30 -77 -44 -19 -6 -21 -47 -18 -406 1 -193
4 -206 48 -229 l35 -18 -41 -7 c-70 -11 -61 -31 23 -52 30 -7 29 -7 -13 -14
-62 -9 -72 -25 -25 -40 57 -19 59 -26 9 -39 -25 -6 -46 -15 -46 -20 0 -5 22
-17 50 -26 62 -21 69 -31 28 -43 -61 -19 -78 -20 -79 -9 0 7 -2 21 -5 32 -11
60 -27 1045 -16 1061 10 16 32 22 80 23 31 1 42 -3 42 -14z m225 -185 c21 -23
23 -69 4 -81 -49 -31 -96 28 -63 79 18 27 35 28 59 2z m9 -215 c27 -27 -6 -75
-51 -75 -19 0 -23 5 -23 33 0 53 40 76 74 42z m-2 -192 c22 -20 23 -31 1 -55
-21 -23 -28 -23 -52 3 -19 21 -18 47 3 61 17 12 28 10 48 -9z m3 -169 c11 -3
30 -19 42 -36 17 -25 19 -35 11 -59 -11 -33 -43 -59 -71 -59 -27 0 -77 54 -77
83 0 30 36 77 58 77 9 0 26 -3 37 -6z m5 -239 c15 -18 6 -61 -16 -69 -18 -7
-49 8 -57 28 -8 19 20 56 42 56 10 0 24 -7 31 -15z m-271 -146 c37 -13 30 -27
-14 -31 -36 -2 -55 7 -55 28 0 17 25 18 69 3z m283 -36 c23 -21 23 -45 0 -73
-36 -45 -106 4 -79 55 19 38 49 45 79 18z m-260 -49 c32 -20 -22 -40 -63 -24
-45 19 -37 39 13 33 23 -2 46 -7 50 -9z"/>
<path d="M4998 4123 c-17 -39 -17 -1558 0 -1625 4 -16 17 -18 102 -18 72 0
102 4 113 14 15 16 17 120 21 1159 l2 487 -40 0 c-23 1 -74 3 -113 6 -72 6
-73 6 -85 -23z m181 -48 c6 -7 10 -281 12 -953 2 -453 -1 -566 -11 -572 -16
-10 -140 -24 -147 -16 -7 6 -10 1362 -4 1471 2 39 6 74 8 78 5 8 133 0 142 -8z"/>
<path d="M5074 4033 c-17 -12 -18 -51 -15 -625 1 -337 3 -662 5 -723 l2 -110
27 -9 c23 -8 31 -6 49 11 21 22 21 23 21 595 0 777 -6 879 -53 875 -10 -1 -26
-7 -36 -14z"/>
<path d="M4712 4082 c-15 -10 -20 -236 -23 -1020 -2 -386 1 -536 9 -544 12
-12 139 -14 173 -3 21 7 27 34 34 145 9 125 14 1271 6 1333 -10 79 -25 91
-114 95 -39 1 -78 -1 -85 -6z m144 -67 c15 -21 10 -100 -8 -122 -11 -14 -62
-16 -91 -4 -14 5 -7 10 28 19 56 15 58 28 5 37 -51 9 -62 25 -16 25 50 0 53
16 6 40 -22 11 -40 22 -40 24 0 1 23 2 51 2 38 -1 55 -7 65 -21z m7 -1299 c9
-10 12 -31 10 -68 -7 -98 -8 -101 -56 -94 -23 3 -53 6 -67 6 l-25 2 24 7 c35
9 37 27 4 39 l-28 10 37 1 c75 2 92 24 26 36 l-43 7 43 12 c59 15 58 30 -3 35
-38 2 -45 5 -30 11 32 14 92 11 108 -4z"/>
<path d="M5320 3800 c-13 -8 -15 -74 -15 -487 -1 -263 2 -505 5 -538 5 -58 6
-59 40 -66 19 -4 70 -10 112 -13 73 -6 78 -5 92 16 24 37 31 112 42 430 12
330 6 639 -12 657 -10 10 -248 11 -264 1z m205 -64 c17 -12 19 -26 19 -99 0
-52 -5 -92 -13 -100 -9 -11 -29 -14 -83 -11 -87 4 -117 23 -40 25 69 2 72 2
75 14 1 6 -25 15 -58 21 -33 7 -49 12 -35 13 33 1 103 21 97 27 -6 6 -43 13
-85 16 -50 3 -50 18 0 18 51 0 88 9 88 21 0 5 -31 9 -70 9 -63 0 -70 2 -70 20
0 27 23 37 93 39 41 1 69 -3 82 -13z m-16 -687 c11 -7 -1 -8 -39 -4 -30 3 -70
1 -87 -4 -26 -8 -33 -7 -33 4 0 7 5 15 11 17 20 7 133 -3 148 -13z m15 -86
c-1 -27 -2 -52 -3 -56 0 -5 -13 -6 -28 -3 -16 3 -48 8 -73 11 -24 3 -46 7 -48
9 -2 3 26 7 62 11 37 4 69 12 72 17 10 16 -17 28 -63 28 -67 0 -87 14 -28 20
123 12 111 16 109 -37z m-7 -107 c14 -13 8 -97 -8 -107 -15 -10 -98 -3 -137
12 -39 15 -13 30 62 36 81 7 88 27 16 42 -28 6 -58 11 -66 11 -9 0 -12 5 -8
11 7 12 128 8 141 -5z"/>
<path d="M2248 1870 c-70 -3 -132 -10 -137 -15 -13 -13 -19 -103 -26 -418 -13
-544 -18 -616 -46 -696 -47 -136 -140 -205 -328 -242 -89 -17 -94 -24 -89
-135 l5 -92 -56 -7 c-102 -12 -168 -54 -201 -127 -27 -60 -12 -102 41 -114 55
-12 529 -17 1774 -18 1305 -1 1320 -1 1347 19 46 35 50 56 18 111 -30 53 -73
83 -150 105 -66 18 -68 21 -64 96 5 101 -7 113 -151 152 -171 47 -235 121
-252 294 -6 63 -9 682 -4 892 4 156 4 155 -15 180 -15 20 -27 20 -777 20 -419
0 -819 -2 -889 -5z m238 -55 c330 -6 860 -13 1166 -15 l186 -2 -5 -151 c-8
-212 -7 -569 1 -712 23 -394 71 -471 329 -540 37 -10 71 -23 76 -29 5 -6 12
-40 15 -76 10 -102 10 -101 96 -116 63 -11 128 -35 134 -49 8 -22 -33 -35 -97
-30 -77 5 -109 15 -128 39 -14 17 -32 22 -96 27 -43 3 -610 5 -1261 5 l-1183
-1 -25 -32 c-28 -36 -63 -49 -147 -52 -76 -3 -97 5 -97 34 0 42 56 71 163 85
38 5 73 12 78 17 4 4 11 46 14 93 4 47 10 87 13 91 4 3 28 10 53 17 111 27
163 54 225 116 46 46 67 78 88 131 56 140 68 266 71 770 4 430 3 398 13 391 5
-3 148 -8 318 -11z"/>
<path d="M2228 1729 c0 -13 -2 -35 -4 -49 -1 -14 -5 -158 -8 -320 -11 -492
-16 -563 -53 -660 -29 -80 -70 -144 -126 -199 -46 -47 -80 -66 -177 -101 -77
-27 -100 -45 -100 -76 0 -13 8 -25 18 -28 63 -20 2250 -41 2365 -22 41 6 47
10 47 31 0 29 -13 36 -158 90 -143 53 -198 104 -216 201 -5 26 -14 114 -21
204 -4 41 -9 100 -11 130 -10 104 -13 615 -4 695 5 44 5 84 1 88 -24 24 -133
29 -818 34 l-733 5 -2 -23z m922 -231 c156 -42 292 -181 318 -325 24 -135 -28
-281 -135 -379 -39 -35 -139 -90 -183 -100 -46 -10 -204 -12 -235 -2 -209 66
-350 259 -332 454 15 161 143 298 324 349 54 15 190 17 243 3z"/>
<path d="M2980 1492 c-60 -9 -171 -72 -228 -129 -82 -82 -105 -134 -104 -235
1 -101 8 -132 38 -184 30 -54 124 -139 180 -165 106 -48 247 -44 354 11 55 28
128 109 163 180 30 60 32 72 32 165 0 89 -3 106 -27 150 -47 90 -167 183 -260
200 -45 9 -116 12 -148 7z m197 -108 c69 -33 138 -111 158 -177 22 -73 19
-162 -5 -212 -69 -143 -247 -211 -424 -164 -50 13 -148 105 -177 166 -18 37
-21 56 -16 121 5 91 30 153 83 212 65 72 114 88 249 83 61 -3 93 -10 132 -29z"/>
<path d="M2993 1364 c-26 -12 -12 -33 25 -39 100 -17 175 -72 187 -136 23
-127 2 -184 -85 -238 -86 -52 -168 -15 -275 124 -24 31 -52 26 -61 -12 -12
-47 43 -129 115 -171 38 -22 56 -26 116 -25 38 1 86 8 106 17 50 21 115 89
131 139 18 52 14 176 -6 215 -19 35 -72 85 -114 106 -35 18 -118 30 -139 20z"/>
<path d="M2957 1219 c-22 -13 -47 -61 -47 -93 0 -51 42 -101 93 -112 48 -9
111 36 118 86 13 84 -92 161 -164 119z m85 -66 c25 -22 23 -60 -2 -68 -40 -13
-68 43 -38 73 15 15 18 15 40 -5z"/>
</g>
</svg>
